<svg width="671" height="702" viewBox="0 0 671 702" fill="none" xmlns="http://www.w3.org/2000/svg">
<path d="M657.128 202.168C657.93 208.808 648.267 216.51 642.475 221.338C636.682 226.167 629.694 228.647 622.9 230.295C605.453 234.529 588.248 233.904 570.892 235.804C553.536 237.703 534.833 242.806 520.472 255.877C498.046 276.293 493.685 308.064 488.545 336.165C487.195 343.519 485.514 351.23 480.88 357.68C474.94 365.951 465.105 370.609 456 371.899C446.895 373.188 438.241 371.617 429.676 370.257C402.106 365.864 372.601 363.696 343.608 374.749C314.615 385.802 275.252 420.048 266.276 471.483" stroke="url(#paint0_linear_481_329)" stroke-opacity="0.37" stroke-width="0.71" stroke-miterlimit="10"/>
<path d="M651.486 203.899C652.277 210.534 647.968 218.125 642.169 222.951C636.371 227.777 629.381 230.287 622.61 231.945C605.158 236.176 587.952 235.551 570.596 237.451C553.241 239.35 534.537 244.453 520.176 257.524C497.727 277.93 493.373 309.69 488.209 337.796C486.865 345.152 485.182 352.854 480.544 359.311C474.593 367.615 464.775 372.242 455.664 373.53C446.553 374.817 437.911 373.25 429.345 371.89C401.77 367.495 372.265 365.327 343.272 376.38C314.278 387.433 274.916 421.678 265.94 473.113" stroke="url(#paint1_linear_481_329)" stroke-opacity="0.37" stroke-width="0.71" stroke-miterlimit="10"/>
<path opacity="0.98" d="M264.92 471.823C270.495 443.172 286.205 420.283 304.191 403.895C317.028 392.205 330.986 383.85 343.237 379.341C354.475 375.279 365.946 372.703 377.333 371.684C381.754 371.265 386.093 370.997 390.471 370.867C400.618 370.656 410.656 371.079 420.529 372.134C423.395 372.424 426.234 372.746 429.047 373.1C434.95 373.83 440.942 374.68 447.055 374.561C449.569 374.528 452.112 374.291 454.66 373.851C459.047 373.071 463.401 371.565 467.54 369.397C472.151 366.967 476.364 363.781 479.521 359.655C480.711 358.081 481.746 356.408 482.608 354.669C485.09 349.728 486.344 344.339 487.437 339.144C488.531 333.95 489.566 328.655 490.705 323.311C493.628 309.724 497.253 295.977 503.868 283.551C508.057 275.452 513.769 268.042 520.629 261.806C525.25 257.698 530.331 254.193 535.713 251.404C546.953 245.493 559.177 242.418 570.796 240.758C582.516 239.078 594.143 238.576 605.936 236.956C611.383 236.237 616.84 235.177 622.276 233.783C629.063 232.002 636.071 229.407 641.919 224.541C647.768 219.674 652.176 212.146 651.603 205.507" stroke="url(#paint2_linear_481_329)" stroke-opacity="0.37" stroke-width="0.71" stroke-miterlimit="10"/>
<path opacity="0.95" d="M263.788 471.183C269.703 443.854 285.556 422.224 303.727 406.561C316.658 395.413 330.687 387.354 343.1 382.949C354.431 378.989 365.964 376.39 377.434 375.212C381.867 374.706 386.269 374.387 390.589 374.157C400.596 373.662 410.521 373.747 420.315 374.411C423.114 374.592 425.892 374.81 428.636 375.053C434.389 375.554 440.19 376.174 446.116 375.857C448.567 375.743 451.041 375.427 453.512 374.91C457.856 373.953 462.146 372.352 466.234 370.163C470.877 367.7 475.152 364.645 478.334 360.722C479.534 359.236 480.586 357.646 481.469 355.984C483.988 351.288 485.336 346.165 486.495 341.188C487.654 336.211 488.779 331.206 490.001 326.124C493.128 313.201 496.949 300.129 503.821 288.113C511.233 274.642 522.661 263.366 536.173 256.193C547.411 250.105 559.443 246.708 570.891 244.689C582.43 242.669 593.862 241.774 605.559 239.825C610.994 238.948 616.429 237.76 621.838 236.268C628.618 234.346 635.638 231.65 641.532 226.763C647.426 221.876 651.935 214.381 651.563 207.8" stroke="url(#paint3_linear_481_329)" stroke-opacity="0.37" stroke-width="0.7" stroke-miterlimit="10"/>
<path opacity="0.93" d="M262.552 471.151C268.807 445.144 284.804 424.773 303.137 409.824C316.158 399.225 330.264 391.481 342.834 387.146C354.266 383.307 365.864 380.68 377.423 379.314C381.867 378.759 386.296 378.351 390.641 378.009C400.48 377.232 410.262 376.969 419.947 377.221C422.697 377.311 425.402 377.418 428.062 377.543C433.703 377.823 439.334 378.198 445.071 377.699C447.458 377.503 449.859 377.109 452.25 376.519C456.551 375.387 460.781 373.693 464.826 371.483C469.504 368.981 473.823 366.066 477.05 362.344C478.259 360.944 479.325 359.434 480.226 357.844C482.778 353.399 484.198 348.535 485.415 343.88C486.632 339.224 487.856 334.411 489.164 329.586C492.483 317.322 496.536 304.94 503.649 293.281C508.365 285.465 514.337 278.343 521.268 272.271C526.011 268.185 531.138 264.616 536.534 261.645C547.779 255.377 559.649 251.67 570.903 249.281C582.259 246.912 593.489 245.623 605.098 243.355C610.519 242.318 615.933 241 621.315 239.406C628.117 237.325 635.162 234.531 641.099 229.616C647.036 224.701 651.655 217.25 651.493 210.693" stroke="url(#paint4_linear_481_329)" stroke-opacity="0.37" stroke-width="0.69" stroke-miterlimit="10"/>
<path opacity="0.9" d="M261.206 471.678C267.801 446.994 283.929 427.891 302.482 413.666C315.55 403.645 329.776 396.17 342.503 391.937C354.027 388.187 365.693 385.53 377.334 384.003C381.807 383.384 386.262 382.887 390.591 382.469C400.874 381.41 410.391 380.761 419.534 380.664C422.202 380.629 424.842 380.626 427.456 380.655C432.943 380.713 438.407 380.852 443.963 380.157C446.284 379.883 448.614 379.413 450.926 378.753C455.174 377.438 459.342 375.649 463.344 373.424C468.061 370.876 472.432 368.112 475.698 364.59C476.91 363.273 477.99 361.846 478.917 360.337C481.509 356.129 483.003 351.532 484.317 347.099C485.631 342.667 486.916 338.146 488.301 333.581C491.808 321.997 496.089 310.273 503.457 298.999C508.432 291.345 514.534 284.376 521.503 278.392C526.301 274.292 531.449 270.667 536.852 267.585C548.094 261.139 559.783 257.092 570.862 254.365C581.94 251.639 593.07 249.965 604.594 247.373C609.891 246.168 615.275 244.799 620.743 243.029C627.511 240.842 634.553 237.948 640.543 233C646.532 228.053 651.242 220.654 651.302 214.125" stroke="url(#paint5_linear_481_329)" stroke-opacity="0.37" stroke-width="0.69" stroke-miterlimit="10"/>
<path opacity="0.88" d="M259.738 472.722C266.669 449.367 282.931 431.526 301.67 418.011C314.207 408.947 327.858 401.91 342.006 397.219C353.625 393.578 365.359 390.893 377.082 389.194C381.58 388.515 386.058 387.936 390.4 387.378C400.689 386.046 410.06 385.016 418.949 384.534C421.556 384.393 424.13 384.284 426.67 384.208C431.994 384.061 437.318 383.915 442.691 383.024C444.942 382.681 447.194 382.146 449.422 381.427C453.616 379.931 457.726 378.05 461.695 375.81C466.446 373.222 470.866 370.601 474.173 367.278C475.397 366.042 476.495 364.688 477.442 363.244C480.083 359.285 481.653 354.949 483.042 350.768C484.431 346.587 485.808 342.325 487.27 338.021C490.985 327.079 495.441 316.084 503.093 305.169C508.314 297.683 514.53 290.861 521.521 284.945C526.388 280.881 531.563 277.246 536.971 274.094C548.218 267.467 559.725 263.094 570.63 260.014C581.534 256.935 592.473 254.886 603.898 251.97C609.158 250.613 614.525 249.108 619.99 247.237C626.755 244.911 633.807 241.922 639.84 236.946C645.873 231.97 650.657 224.601 650.965 218.119" stroke="url(#paint6_linear_481_329)" stroke-opacity="0.37" stroke-width="0.68" stroke-miterlimit="10"/>
<path opacity="0.85" d="M258.135 474.248C265.409 452.223 281.798 435.619 300.753 422.849C313.522 414.211 327.256 407.507 341.416 402.999C353.133 399.457 364.942 396.741 376.75 394.871C381.27 394.125 385.768 393.47 390.112 392.791C400.4 391.198 409.612 389.776 418.283 388.93C420.83 388.683 423.338 388.464 425.805 388.271C431.001 387.867 436.133 387.544 441.312 386.467C443.508 386.023 445.695 385.396 447.85 384.593C451.985 382.92 456.041 380.946 459.981 378.69C464.782 376.038 469.235 373.59 472.581 370.467C473.804 369.321 474.912 368.056 475.882 366.698C478.571 362.989 480.208 358.908 481.677 354.981C483.146 351.055 484.603 347.062 486.142 343.018C490.049 332.735 494.733 322.397 502.626 311.893C508.101 304.587 514.442 297.914 521.464 292.064C526.391 288.004 531.592 284.332 537.008 281.091C547.654 274.747 558.852 269.724 570.308 266.155C581.107 262.697 591.755 260.278 603.095 257.038C608.312 255.526 613.665 253.892 619.131 251.914C625.891 249.457 632.955 246.365 639.037 241.363C645.118 236.361 650.026 229.05 650.514 222.571" stroke="url(#paint7_linear_481_329)" stroke-opacity="0.37" stroke-width="0.68" stroke-miterlimit="10"/>
<path opacity="0.83" d="M256.388 476.203C263.996 455.498 280.496 440.185 299.668 428.107C312.663 419.915 326.478 413.541 340.652 409.197C352.464 405.754 364.347 403.005 376.238 400.964C380.788 400.162 385.304 399.422 389.649 398.636C399.935 396.775 408.983 394.965 417.448 393.746C419.935 393.388 422.375 393.063 424.77 392.77C429.816 392.137 434.784 391.571 439.778 390.306C441.91 389.778 444.024 389.073 446.098 388.198C449.716 386.668 453.732 384.396 458.072 382.002C462.878 379.353 467.401 377.01 470.791 374.08C472.017 373.018 473.139 371.836 474.135 370.558C476.865 367.071 478.579 363.274 480.129 359.602C481.679 355.93 483.213 352.197 484.832 348.408C488.946 338.781 493.843 329.103 501.994 319.017C507.721 311.897 514.185 305.367 521.241 299.574C526.231 295.529 531.459 291.824 536.878 288.493C547.414 282.019 558.472 276.724 569.814 272.722C580.421 268.88 590.89 266.091 602.131 262.513C607.31 260.863 612.633 259.103 618.093 256.993C624.864 254.371 631.92 251.215 638.054 246.181C644.189 241.146 649.204 233.856 649.904 227.439" stroke="url(#paint8_linear_481_329)" stroke-opacity="0.37" stroke-width="0.67" stroke-miterlimit="10"/>
<path opacity="0.8" d="M254.495 478.546C262.457 459.177 279.05 445.125 298.451 433.766C311.667 426.025 325.567 419.978 339.766 415.793C351.706 412.359 363.74 409.742 375.597 407.468C380.169 406.597 384.702 405.788 389.058 404.876C399.338 402.753 408.226 400.55 416.472 398.959C418.888 398.496 421.267 398.064 423.591 397.656C428.493 396.797 433.29 396.002 438.108 394.543C440.174 393.923 442.214 393.14 444.21 392.202C447.709 390.555 451.632 388.169 456.033 385.715C460.88 383.014 465.446 380.826 468.875 378.096C470.103 377.117 471.239 376.018 472.262 374.82C475.019 371.597 476.815 368.039 478.434 364.616C480.053 361.194 481.674 357.726 483.371 354.198C487.678 345.229 492.775 336.259 501.183 326.529C507.156 319.604 513.746 313.218 520.841 307.482C525.887 303.442 531.139 299.701 536.562 296.282C547.005 289.657 557.937 284.069 569.168 279.613C579.61 275.414 589.886 272.28 601.018 268.359C606.174 266.57 611.468 264.653 616.908 262.45C623.655 259.781 630.755 256.467 636.952 251.381C643.148 246.295 648.227 239.107 649.161 232.685" stroke="url(#paint9_linear_481_329)" stroke-opacity="0.37" stroke-width="0.67" stroke-miterlimit="10"/>
<path opacity="0.78" d="M252.444 481.235C260.735 463.169 277.438 450.4 297.069 439.76C310.492 432.481 324.476 426.76 338.704 422.727C350.717 419.391 362.856 416.749 374.767 414.335C379.364 413.406 383.926 412.501 388.275 411.487C398.564 409.085 407.304 406.493 415.354 404.525C417.711 403.947 420.016 403.404 422.27 402.896C426.965 401.931 431.646 400.673 436.285 399.128C438.287 398.423 440.257 397.563 442.175 396.557C445.59 394.754 449.419 392.269 453.839 389.792C458.725 387.045 463.337 385.006 466.806 382.475C468.04 381.58 469.192 380.562 470.238 379.44C473.038 376.463 474.908 373.172 476.624 370.011C478.341 366.849 480.043 363.636 481.8 360.361C486.728 351.026 492.961 342.274 500.273 334.42C506.493 327.695 513.211 321.448 520.348 315.754C525.458 311.724 530.741 307.948 536.171 304.443C546.519 297.687 557.312 291.826 568.408 286.937C578.628 282.396 588.696 278.841 599.734 274.6C604.839 272.645 610.129 270.604 615.562 268.299C622.304 265.429 629.402 262.053 635.632 256.957C641.862 251.862 647.058 244.69 648.2 238.323" stroke="url(#paint10_linear_481_329)" stroke-opacity="0.37" stroke-width="0.66" stroke-miterlimit="10"/>
<path opacity="0.76" d="M250.216 484.229C258.86 467.513 275.642 455.977 295.512 446.053C309.137 439.251 323.207 433.857 337.47 429.968C349.586 426.743 361.789 424.072 373.799 421.446C378.424 420.452 383.01 419.465 387.353 418.342C397.642 415.679 406.202 412.694 414.01 410.368C416.305 409.688 418.545 409.037 420.729 408.415C425.274 407.219 429.789 405.744 434.247 403.996C436.191 403.207 438.095 402.272 439.943 401.201C443.254 399.264 447.004 396.655 451.467 394.135C456.383 391.346 461.035 389.453 464.559 387.12C465.784 386.305 466.94 385.371 468.004 384.335C470.867 381.605 472.793 378.574 474.59 375.667C476.387 372.76 478.155 369.803 480.006 366.795C485.33 358.025 491.779 349.867 499.15 342.577C505.608 336.072 512.45 329.97 519.623 324.317C524.801 320.243 530.211 316.453 535.538 312.898C545.805 306.003 556.466 299.861 567.42 294.529C577.469 289.629 587.363 285.668 598.329 281.13C603.394 279.028 608.65 276.882 614.092 274.443C620.828 271.441 627.939 267.962 634.218 262.841C640.496 257.719 645.79 250.587 647.15 244.231" stroke="url(#paint11_linear_481_329)" stroke-opacity="0.37" stroke-width="0.65" stroke-miterlimit="10"/>
<path opacity="0.73" d="M247.78 487.467C256.741 472.064 273.63 461.802 293.756 452.601C307.571 446.278 321.728 441.207 336.035 437.456C348.207 434.322 360.545 431.607 372.619 428.838C377.265 427.776 381.88 426.709 386.223 425.471C396.506 422.546 404.903 419.174 412.507 416.483C414.748 415.695 416.922 414.936 419.03 414.205C423.423 412.776 427.77 411.081 432.045 409.133C433.916 408.245 435.742 407.228 437.509 406.091C440.717 404.021 444.392 401.29 448.882 398.735C453.829 395.913 458.531 394.162 462.095 392.029C463.331 391.29 464.509 390.435 465.61 389.478C468.498 386.988 470.524 384.227 472.387 381.576C474.25 378.924 476.129 376.203 478.047 373.475C482.95 366.483 488.661 359.565 497.851 350.984C504.533 344.698 511.493 338.729 518.7 333.105C523.943 329.042 529.396 325.185 534.683 321.56C544.89 314.542 555.433 308.135 566.244 302.382C576.125 297.116 585.791 292.772 596.697 287.903C601.721 285.656 606.974 283.347 612.385 280.82C619.11 277.683 626.23 274.109 632.561 268.955C638.892 263.801 644.289 256.725 645.875 250.391" stroke="url(#paint12_linear_481_329)" stroke-opacity="0.37" stroke-width="0.65" stroke-miterlimit="10"/>
<path opacity="0.71" d="M245.113 490.94C254.442 476.872 271.39 467.857 291.75 459.378C305.741 453.541 319.984 448.789 334.34 445.168C346.607 442.142 359.016 439.386 371.187 436.45C375.86 435.338 380.492 434.186 384.84 432.835C395.126 429.644 403.363 425.878 410.743 422.822L417.044 420.202C421.304 418.542 425.5 416.623 429.608 414.458C431.405 413.489 433.154 412.406 434.843 411.218C437.952 409.008 441.545 406.167 446.061 403.577C451.047 400.709 455.795 399.092 459.398 397.174C460.635 396.509 461.826 395.738 462.956 394.869C465.55 392.782 467.897 390.382 469.926 387.741C471.894 385.376 473.812 382.908 475.821 380.415C480.927 374.063 486.836 367.844 496.287 359.651C502.268 354.471 509.44 348.387 517.552 342.17C522.853 338.115 528.311 334.275 533.643 330.515C543.774 323.344 554.177 316.643 564.812 310.438C574.499 304.841 583.996 300.123 594.811 294.927C599.798 292.527 605.03 290.087 610.442 287.468C617.166 284.201 624.29 280.53 630.674 275.343C637.057 270.157 642.533 263.129 644.332 256.827" stroke="url(#paint13_linear_481_329)" stroke-opacity="0.37" stroke-width="0.64" stroke-miterlimit="10"/>
<path opacity="0.68" d="M242.201 494.491C251.838 481.739 268.891 473.975 289.524 466.24C303.69 460.897 318.032 456.464 332.455 452.972C344.805 450.04 357.313 447.255 369.539 444.15C374.228 442.983 378.89 441.737 383.233 440.277C393.522 436.819 401.593 432.658 408.742 429.225L414.862 426.303C418.955 424.412 422.97 422.279 426.882 419.919C428.615 418.848 430.296 417.677 431.916 416.414C434.921 414.07 438.44 411.108 442.982 408.482C448.003 405.575 452.794 404.113 456.444 402.381C457.683 401.794 458.888 401.106 460.044 400.324C462.645 398.483 465.048 396.337 467.186 393.945C469.214 391.819 471.238 389.623 473.324 387.39C478.621 381.712 484.736 376.165 494.443 368.382C500.582 363.456 507.909 357.488 516.14 351.296C521.492 347.261 527.006 343.345 532.317 339.531C543.56 331.465 553.64 324.55 563.131 318.591C572.621 312.632 581.979 307.506 592.678 301.98C597.611 299.42 602.839 296.857 608.263 294.098C614.985 290.693 622.118 286.925 628.551 281.713C634.983 276.5 640.557 269.511 642.567 263.234" stroke="url(#paint14_linear_481_329)" stroke-opacity="0.37" stroke-width="0.64" stroke-miterlimit="10"/>
<path opacity="0.66" d="M238.998 498.17C249.003 486.752 266.104 480.231 286.968 473.224C301.29 468.377 315.726 464.261 330.214 460.893C342.646 458.07 355.245 455.246 367.544 451.98C372.268 450.735 376.946 449.418 381.294 447.846C391.576 444.125 399.488 439.571 406.423 435.807C408.463 434.698 410.443 433.616 412.361 432.56C416.306 430.442 420.155 428.092 423.884 425.524C425.54 424.358 427.144 423.108 428.689 421.781C431.6 419.3 435.035 416.22 439.609 413.561C444.682 410.622 449.497 409.299 453.206 407.767C454.45 407.252 455.667 406.644 456.847 405.948C459.475 404.353 461.952 402.468 464.221 400.335C466.324 398.461 468.425 396.526 470.594 394.556C476.083 389.537 482.401 384.668 492.391 377.243C498.681 372.57 506.17 366.743 514.492 360.55C519.909 356.526 525.449 352.574 530.766 348.671C542.003 340.396 551.9 333.155 561.226 326.839C570.67 320.481 580.365 314.592 590.269 309.199C595.182 306.494 600.372 303.793 605.788 300.931C612.499 297.391 619.65 293.523 626.126 288.283C632.602 283.042 638.262 276.088 640.514 269.854" stroke="url(#paint15_linear_481_329)" stroke-opacity="0.37" stroke-width="0.63" stroke-miterlimit="10"/>
<path opacity="0.63" d="M235.504 501.907C245.846 491.817 263.006 486.528 284.184 480.252C297.885 476.198 313.216 472.036 327.692 468.868C340.229 466.149 352.912 463.313 365.28 459.89C369.909 458.677 374.512 457.215 379.069 455.513C389.35 451.523 397.104 446.584 403.841 442.42C405.812 441.197 407.725 440.003 409.56 438.839C413.352 436.487 417.033 433.919 420.58 431.149C422.008 430.012 423.544 428.713 425.184 427.18C427.993 424.551 431.353 421.364 435.956 418.663C441.049 415.686 445.919 414.508 449.663 413.174C450.909 412.725 452.14 412.2 453.346 411.601C455.991 410.234 458.53 408.605 460.918 406.741C463.101 405.122 465.286 403.449 467.521 401.758C473.208 397.4 479.729 393.209 489.979 386.173C496.451 381.695 504.108 375.959 512.522 369.818C517.988 365.806 523.566 361.809 528.883 357.829C540.14 349.371 549.855 341.82 558.993 335.175C568.229 328.427 577.767 322.179 587.555 316.462C592.431 313.604 597.6 310.773 603.006 307.814C609.71 304.142 616.888 300.186 623.393 294.903C629.898 289.621 635.695 282.737 638.15 276.517" stroke="url(#paint16_linear_481_329)" stroke-opacity="0.37" stroke-width="0.63" stroke-miterlimit="10"/>
<path opacity="0.61" d="M231.778 505.785C242.46 497.023 259.682 492.954 281.084 487.427C294.87 483.885 310.322 480.028 324.977 476.965C337.575 474.336 350.361 471.446 362.808 467.845C367.463 466.566 372.085 465.013 376.65 463.194C386.936 458.929 394.53 453.579 401.038 449.069C402.945 447.737 404.783 446.439 406.552 445.174C410.195 442.593 413.71 439.806 417.073 436.83C418.424 435.616 419.868 434.225 421.463 432.62C424.154 429.882 427.446 426.545 432.077 423.816C437.196 420.787 442.118 419.758 445.908 418.625C447.162 418.247 448.407 417.802 449.636 417.291C452.311 416.157 454.918 414.789 457.421 413.203C459.698 411.827 461.945 410.439 464.277 408.971C470.162 405.271 476.881 401.763 487.39 395.111C493.992 390.936 501.809 385.34 510.313 379.195C515.768 375.162 521.423 371.134 526.724 367.062C537.96 358.455 547.493 350.584 556.473 343.575C565.502 336.425 574.89 329.806 584.576 323.76C589.408 320.746 594.562 317.784 599.953 314.719C606.654 310.906 613.823 306.845 620.395 301.55C626.968 296.255 632.835 289.391 635.51 283.175" stroke="url(#paint17_linear_481_329)" stroke-opacity="0.37" stroke-width="0.62" stroke-miterlimit="10"/>
<path opacity="0.59" d="M227.63 509.444C238.657 502 255.948 499.162 277.602 494.42C291.402 491.389 306.992 487.865 321.814 484.91C334.541 482.467 347.25 479.389 359.892 475.688C364.574 474.356 369.216 472.718 373.787 470.784C384.069 466.266 391.492 460.535 397.796 455.637C399.646 454.196 401.42 452.786 403.12 451.407C406.608 448.607 409.949 445.612 413.123 442.441C414.396 441.15 415.786 439.692 417.297 438.007C419.906 435.098 423.103 431.677 427.766 428.916C432.91 425.844 437.887 424.96 441.725 424.023C443.162 423.677 444.41 423.293 445.493 422.942C448.192 422.019 450.853 420.904 453.456 419.608C455.8 418.496 458.165 417.347 460.541 416.149C466.634 413.107 473.547 410.282 484.332 404.018C491.08 400.094 499.07 394.622 507.655 388.495C513.241 384.508 518.888 380.43 524.201 376.272C535.441 367.492 544.795 359.305 553.595 351.903C562.416 344.364 571.653 337.377 581.239 330.996C586.04 327.832 591.167 324.738 596.56 321.567C603.253 317.614 610.432 313.458 617.055 308.123C623.678 302.788 629.643 295.979 632.524 289.823" stroke="url(#paint18_linear_481_329)" stroke-opacity="0.37" stroke-width="0.61" stroke-miterlimit="10"/>
<path opacity="0.56" d="M223.178 513.008C234.551 506.89 251.897 505.27 273.83 501.279C287.664 498.761 303.385 495.568 318.368 492.719C331.184 490.379 343.984 487.268 356.696 483.405C361.408 482.019 366.072 480.297 370.649 478.252C380.912 473.461 388.195 467.353 394.284 462.078C396.071 460.536 397.778 459.019 399.402 457.529C402.742 454.486 405.913 451.257 408.895 447.862C410.087 446.5 411.41 444.946 412.853 443.195C415.362 440.147 418.482 436.611 423.174 433.809C428.338 430.7 433.365 429.96 437.255 429.227C438.702 428.955 439.973 428.657 441.063 428.386C443.803 427.682 446.527 426.825 449.223 425.82C451.654 424.965 454.072 424.068 456.553 423.133C462.837 420.752 469.957 418.6 481.012 412.737C487.92 409.062 496.065 403.722 504.747 397.613C510.377 393.636 516.081 389.522 521.382 385.283C532.623 376.321 541.799 367.818 550.429 360.059C559.06 352.3 567.343 345.28 577.577 338.13C582.338 334.874 587.481 331.596 592.859 328.336C599.547 324.251 606.735 320.001 613.411 314.635C620.087 309.268 626.15 302.515 629.243 296.384" stroke="url(#paint19_linear_481_329)" stroke-opacity="0.37" stroke-width="0.61" stroke-miterlimit="10"/>
<path opacity="0.54" d="M218.418 516.524C230.127 511.735 247.541 511.32 269.738 508.1C283.626 506.056 299.452 503.226 314.597 500.481C327.502 498.238 340.393 495.092 353.173 491.068C357.909 489.626 362.587 487.816 367.162 485.654C377.435 480.622 384.552 474.095 390.422 468.457C392.148 466.804 393.792 465.173 395.354 463.565C398.555 460.301 401.569 456.86 404.375 453.264C405.496 451.827 406.73 450.177 408.124 448.361C410.533 445.173 413.572 441.528 418.287 438.697C423.513 435.551 428.56 434.942 432.475 434.41C433.962 434.246 435.231 433.993 436.332 433.818C439.598 433.269 442.193 432.603 444.689 432.005C447.186 431.406 449.702 430.769 452.259 430.096C458.742 428.375 466.055 426.906 477.374 421.424C484.434 418.001 492.744 412.782 501.514 406.692C507.228 402.742 512.955 398.583 518.253 394.259C529.495 385.114 538.488 376.301 546.933 368.169C555.379 360.037 563.465 352.655 573.625 345.199C578.337 341.747 583.439 338.376 588.822 334.989C595.487 330.765 602.711 326.422 609.425 321.025C616.138 315.628 622.3 308.937 625.622 302.822" stroke="url(#paint20_linear_481_329)" stroke-opacity="0.37" stroke-width="0.6" stroke-miterlimit="10"/>
<path opacity="0.51" d="M213.321 519.874C225.366 516.414 242.845 517.194 265.305 514.762C279.213 513.254 295.166 510.75 310.489 508.076C323.483 505.934 336.469 502.755 349.32 498.568C354.083 497.067 358.779 495.17 363.355 492.897C373.635 487.578 380.573 480.68 386.234 474.675C387.893 472.913 389.467 471.177 390.957 469.469C394.014 465.977 396.862 462.317 399.482 458.516L403.013 453.38C405.311 450.048 408.283 446.292 413.027 443.419C418.288 440.234 423.379 439.765 427.357 439.442C428.824 439.315 430.137 439.187 431.254 439.087C434.571 438.797 437.226 438.384 439.808 438.042C442.391 437.7 444.979 437.321 447.613 436.908C454.297 435.842 461.804 435.055 473.392 429.957C480.626 426.758 489.086 421.69 497.943 415.621C503.714 411.701 509.326 407.506 514.753 403.056C525.991 393.734 534.807 384.612 543.091 376.116C551.283 367.714 559.247 359.854 569.276 352.07C573.955 348.445 579.032 344.964 584.405 341.465C591.079 337.107 598.295 332.662 605.063 327.241C611.831 321.82 618.092 315.154 621.624 309.078" stroke="url(#paint21_linear_481_329)" stroke-opacity="0.37" stroke-width="0.6" stroke-miterlimit="10"/>
<path opacity="0.49" d="M207.87 523.02C220.261 520.885 237.799 522.859 260.526 521.207C274.471 520.203 290.556 518.028 306.033 515.47C319.115 513.428 332.195 510.212 345.113 505.863C349.905 504.303 354.621 502.317 359.198 499.929C369.478 494.35 376.256 487.059 381.689 480.71C383.281 478.836 384.795 476.992 386.209 475.177C389.122 471.454 391.806 467.574 394.24 463.567C395.202 461.982 396.31 460.165 397.554 458.197C399.752 454.725 402.646 450.854 407.422 447.948C412.709 444.728 417.848 444.392 421.871 444.271C423.361 444.23 424.681 444.182 425.81 444.163C429.176 444.121 431.914 443.972 434.568 443.873C437.223 443.774 439.899 443.66 442.611 443.508C449.493 443.103 457.203 442.994 469.057 438.286C476.423 435.362 485.068 430.392 494.018 424.345C499.855 420.436 505.506 416.203 510.936 411.671C522.169 402.163 530.788 392.717 538.906 383.879C546.909 375.125 554.678 366.873 564.654 358.77C569.523 354.865 574.554 351.192 579.724 347.766C586.392 343.276 593.612 338.733 600.432 333.279C607.253 327.826 613.608 321.206 617.35 315.153" stroke="url(#paint22_linear_481_329)" stroke-opacity="0.37" stroke-width="0.59" stroke-miterlimit="10"/>
<path opacity="0.46" d="M202.065 525.916C214.798 525.111 232.405 528.26 255.394 527.41C269.361 526.927 285.587 525.061 301.223 522.613C314.325 520.573 327.659 517.502 340.551 512.908C345.373 511.288 350.106 509.215 354.683 506.718C364.966 500.872 371.584 493.188 376.807 486.448C378.337 484.465 379.778 482.513 381.13 480.591C383.898 476.641 386.412 472.544 388.656 468.333C389.546 466.674 390.564 464.775 391.771 462.708C393.863 459.094 396.685 455.109 401.487 452.168C406.809 448.908 411.991 448.712 416.062 448.802C417.563 448.834 418.901 448.869 420.042 448.932C423.433 449.13 426.265 449.248 428.988 449.413C431.711 449.579 434.482 449.718 437.271 449.826C444.354 450.076 452.261 450.643 464.384 446.334C471.905 443.656 480.713 438.813 489.748 432.777C495.644 428.88 501.327 424.608 506.752 419.992C517.988 410.309 526.45 400.556 534.381 391.337C542.191 382.252 549.775 373.589 559.657 365.165C564.479 361.112 569.488 357.311 574.658 353.782C581.331 349.164 588.553 344.514 595.422 339.035C602.291 333.555 608.702 326.988 612.696 320.975" stroke="url(#paint23_linear_481_329)" stroke-opacity="0.37" stroke-width="0.58" stroke-miterlimit="10"/>
<path opacity="0.44" d="M195.901 528.515C208.971 529.039 226.647 533.363 249.896 533.321C263.9 533.289 280.246 531.8 296.028 529.457C309.213 527.512 322.64 524.41 335.608 519.647C340.46 517.976 345.212 515.818 349.783 513.207C360.058 507.09 366.49 499.01 371.536 491.908C373.004 489.823 374.376 487.764 375.654 485.731C378.278 481.548 380.628 477.232 382.686 472.815C383.498 471.078 384.451 469.092 385.573 466.975C387.596 463.204 390.306 459.128 395.138 456.145C400.494 452.846 405.731 452.771 409.837 453.082C411.353 453.189 412.71 453.308 413.833 453.455C417.295 453.911 420.176 454.278 422.965 454.684C425.754 455.091 428.617 455.504 431.483 455.872C438.758 456.781 446.868 458.026 459.27 454.082C466.946 451.65 475.917 446.934 485.045 440.92C491.001 437.032 496.718 432.718 502.14 428.019C513.379 418.162 521.661 408.091 529.417 398.495C537.059 389.045 544.435 380 554.223 371.255C559.013 367.07 564.015 363.157 569.199 359.541C575.855 354.785 583.103 350.047 590.019 344.533C596.935 339.018 603.473 332.487 607.663 326.5" stroke="url(#paint24_linear_481_329)" stroke-opacity="0.37" stroke-width="0.58" stroke-miterlimit="10"/>
<path opacity="0.41" d="M189.349 530.781C202.759 532.627 220.513 538.122 244.012 538.892C258.078 539.344 274.53 538.204 290.486 535.969C303.755 534.126 317.276 530.993 330.33 526.043C335.213 524.308 339.984 522.06 344.555 519.34C354.839 512.959 361.128 504.493 365.925 497.022C367.335 494.823 368.637 492.657 369.849 490.515C372.329 486.102 374.512 481.567 376.378 476.946C377.119 475.134 377.998 473.065 379.053 470.875C380.929 466.975 383.603 462.77 388.472 459.756C393.858 456.416 399.128 456.5 403.29 456.994C404.813 457.18 406.186 457.397 407.355 457.616C410.862 458.328 413.809 458.95 416.696 459.618C419.583 460.285 422.511 460.954 425.44 461.57C432.91 463.146 441.214 465.058 453.858 461.564C461.692 459.372 470.824 454.797 480.043 448.797C486.058 444.916 491.809 440.56 497.229 435.779C508.464 425.745 516.57 415.365 524.145 405.414C531.598 395.612 538.779 386.175 548.479 377.112C553.214 372.756 558.192 368.691 563.376 364.945C570.03 360.051 577.281 355.215 584.253 349.662C591.225 344.109 597.867 337.643 602.279 331.699" stroke="url(#paint25_linear_481_329)" stroke-opacity="0.37" stroke-width="0.57" stroke-miterlimit="10"/>
<path opacity="0.39" d="M182.411 532.662C196.163 535.839 213.993 542.496 237.741 544.078C251.855 545.015 268.435 544.225 284.542 542.097C297.894 540.349 311.505 537.191 324.622 532.098C329.536 530.302 334.326 527.967 338.893 525.139C349.176 518.498 355.306 509.638 359.886 501.79C361.232 499.488 362.468 497.211 363.61 494.965C365.943 490.326 367.954 485.578 369.626 480.76C370.295 478.874 371.098 476.712 372.09 474.459C373.863 470.41 376.465 466.092 381.356 463.049C386.781 459.663 392.089 459.885 396.299 460.589C397.841 460.844 399.23 461.137 400.397 461.477C403.952 462.438 406.973 463.312 409.937 464.24C412.901 465.168 415.936 466.094 418.956 466.984C426.628 469.215 435.129 471.803 448.056 468.667C456.038 466.733 465.337 462.28 474.646 456.293C480.723 452.427 486.51 448.031 491.924 443.168C503.164 432.943 511.092 422.255 518.468 411.933C525.743 401.784 532.726 391.946 542.339 382.564C547.018 378.048 551.972 373.838 557.158 369.969C563.809 364.936 571.07 360.004 578.081 354.429C585.093 348.854 591.85 342.396 596.449 336.482" stroke="url(#paint26_linear_481_329)" stroke-opacity="0.37" stroke-width="0.57" stroke-miterlimit="10"/>
<path opacity="0.37" d="M175.072 534.114C189.164 538.613 207.079 546.429 231.076 548.838C245.232 550.258 261.921 549.811 278.195 547.803C291.632 546.143 305.333 542.961 318.521 537.697C323.48 535.847 328.301 533.427 332.877 530.489C343.157 523.579 349.124 514.333 353.486 506.121C354.777 503.713 355.946 501.325 357.016 498.965C359.209 494.089 361.057 489.117 362.546 484.091C363.132 482.125 363.866 479.882 364.786 477.554C366.453 473.363 368.984 468.932 373.907 465.856C379.367 462.43 384.719 462.792 388.974 463.698C390.388 463.996 391.773 464.368 393.124 464.814C396.722 466.021 399.82 467.156 402.859 468.336C405.898 469.516 408.999 470.698 412.099 471.842C419.963 474.731 428.666 477.997 441.862 475.261C449.993 473.571 459.464 469.24 468.86 463.273C474.997 459.415 480.819 454.976 486.229 450.031C497.462 439.636 505.217 428.633 512.436 417.95C519.496 407.447 526.278 397.214 535.797 387.512C540.428 382.861 545.361 378.53 550.549 374.56C557.184 369.399 564.464 364.367 571.533 358.762C578.603 353.157 585.429 346.78 590.229 340.855" stroke="url(#paint27_linear_481_329)" stroke-opacity="0.37" stroke-width="0.56" stroke-miterlimit="10"/>
<path opacity="0.34" d="M167.362 535.019C181.799 540.843 199.797 549.809 224.038 553.042C238.241 554.948 255.046 554.845 271.477 552.948C285.003 551.384 298.794 548.177 312.054 542.752C317.107 540.699 322.078 538.315 326.428 535.276C336.708 528.105 342.509 518.463 346.663 509.884C347.876 507.361 348.99 504.867 349.979 502.398C352.038 497.282 353.725 492.083 355.026 486.846C355.585 484.577 356.262 482.318 357.054 480.079C358.606 475.75 361.07 471.208 366.019 468.096C371.514 464.631 376.913 465.127 381.211 466.242C382.64 466.607 384.033 467.057 385.384 467.589C389.029 469.059 392.196 470.444 395.315 471.878C398.435 473.312 401.613 474.755 404.796 476.161C412.861 479.705 421.765 483.641 435.224 481.301C443.515 479.859 453.139 475.659 462.629 469.715C468.825 465.865 474.683 461.383 480.088 456.356C491.35 445.79 498.902 434.46 505.94 423.413C512.848 412.566 519.444 401.936 528.869 391.913C533.448 387.119 538.359 382.656 543.549 378.573C550.188 373.276 557.478 368.134 564.59 362.515C571.702 356.896 578.635 350.54 583.683 344.662" stroke="url(#paint28_linear_481_329)" stroke-opacity="0.37" stroke-width="0.56" stroke-miterlimit="10"/>
<path opacity="0.32" d="M159.526 534.854C174.3 542.007 192.395 552.121 216.866 556.189C231.136 558.557 248.037 558.822 264.636 557.031C278.234 555.565 292.128 552.323 305.461 546.736C310.542 544.618 315.527 542.156 319.882 539.004C330.165 531.567 335.806 521.531 339.73 512.6C340.865 509.999 341.927 507.369 342.851 504.798C344.76 499.455 346.276 494.043 347.385 488.611C347.858 486.269 348.465 483.932 349.201 481.613C350.648 477.142 353.054 472.461 358.018 469.333C363.545 465.835 368.991 466.465 373.331 467.787C374.79 468.225 376.204 468.759 377.564 469.388C381.252 471.105 384.496 472.75 387.696 474.439C390.896 476.127 394.161 477.811 397.414 479.491C405.654 483.686 414.776 488.299 428.503 486.358C436.943 485.175 446.719 481.082 456.313 475.164C462.58 471.31 468.484 466.77 473.892 461.648C485.132 450.888 492.522 439.287 499.348 427.864C506.056 416.661 512.475 405.631 521.809 395.296C526.333 390.356 531.224 385.762 536.423 381.57C543.082 376.143 550.38 370.921 557.546 365.254C564.711 359.588 571.741 353.301 576.999 347.447" stroke="url(#paint29_linear_481_329)" stroke-opacity="0.37" stroke-width="0.55" stroke-miterlimit="10"/>
<path opacity="0.29" d="M151.356 533.96C166.47 542.435 184.66 553.688 209.368 558.593C223.688 561.441 240.702 562.057 257.445 560.4C271.123 559.035 285.11 555.762 298.519 550.007C303.619 547.828 308.636 545.279 312.987 542.018C323.267 534.313 328.738 523.903 332.464 514.57C333.553 511.836 334.534 509.12 335.389 506.444C337.154 500.869 338.503 495.239 339.426 489.606C339.813 487.189 340.348 484.771 341.028 482.368C342.36 477.76 344.666 472.978 349.69 469.805C355.255 466.261 360.745 467.03 365.13 468.555C366.61 469.07 368.038 469.687 369.406 470.402C373.133 472.372 376.454 474.278 379.732 476.212C383.01 478.146 386.35 480.12 389.691 482.041C398.152 486.907 407.451 492.18 421.447 490.638C430.042 489.686 439.997 485.742 449.658 479.843C455.975 476.015 461.906 471.449 467.301 466.261C478.554 455.293 485.784 443.352 492.466 431.572C499.008 420.026 505.202 408.608 514.454 397.942C518.931 392.86 523.807 388.134 529.017 383.828C535.636 378.255 542.947 372.93 550.161 367.238C557.159 361.81 563.786 355.867 569.969 349.475" stroke="url(#paint30_linear_481_329)" stroke-opacity="0.37" stroke-width="0.54" stroke-miterlimit="10"/>
<path opacity="0.27" d="M142.792 532.349C158.252 542.148 176.543 554.543 201.472 560.287C215.856 563.604 232.97 564.582 249.897 562.999C263.669 561.718 277.738 558.424 291.2 552.492C296.324 550.254 301.361 547.629 305.711 544.253C315.994 536.281 321.312 525.465 324.817 515.776C325.843 512.932 326.75 510.115 327.539 507.323C329.163 501.514 330.345 495.665 331.074 489.831C331.375 487.342 331.839 484.847 332.463 482.363C333.69 477.612 335.937 472.73 340.973 469.508C346.574 465.925 352.111 466.828 356.535 468.567C358.04 469.153 359.484 469.85 360.857 470.655C364.632 472.874 368.008 475.069 371.397 477.2C374.785 479.332 378.175 481.617 381.593 483.799C390.246 489.324 399.751 495.269 414.01 494.123C422.778 493.424 432.885 489.602 442.639 483.711C449.016 479.892 454.984 475.281 460.372 470.012C471.615 458.894 478.665 446.636 485.161 434.498C491.537 422.611 497.522 410.787 506.686 399.802C511.109 394.577 515.962 389.716 521.176 385.292C527.785 379.646 535.11 374.228 542.377 368.503C549.443 363.03 556.187 357.107 562.554 350.781" stroke="url(#paint31_linear_481_329)" stroke-opacity="0.37" stroke-width="0.54" stroke-miterlimit="10"/>
<path opacity="0.24" d="M133.818 530.004C149.619 541.135 168.015 554.666 193.171 561.25C207.612 565.034 224.832 566.375 241.907 564.921C255.761 563.735 269.92 560.416 283.482 554.325C288.63 552.028 293.694 549.314 298.039 545.829C308.325 537.591 313.478 526.38 316.764 516.327C317.731 513.378 318.573 510.452 319.29 507.55C320.772 501.508 321.788 495.441 322.328 489.407C322.548 486.847 322.94 484.274 323.5 481.705C324.618 476.804 326.8 471.811 331.864 468.563C337.494 464.938 343.084 465.977 347.55 467.924C349.072 468.583 350.526 469.358 351.901 470.245C355.718 472.725 359.181 475.147 362.646 477.593C366.112 480.038 369.583 482.524 373.078 484.966C381.935 491.155 391.623 497.801 406.162 497.02C415.067 496.56 425.35 492.878 435.195 487.001C441.63 483.189 447.633 478.533 453.013 473.183C464.247 461.886 471.129 449.315 477.423 436.798C483.61 424.558 489.382 412.335 498.476 401.039C502.84 395.667 507.675 390.673 512.903 386.137C519.527 380.306 526.84 374.783 534.149 369.03C541.287 363.498 548.153 357.585 554.709 351.325" stroke="url(#paint32_linear_481_329)" stroke-opacity="0.37" stroke-width="0.53" stroke-miterlimit="10"/>
<path opacity="0.22" d="M124.418 526.901C140.556 539.361 159.066 554.023 184.437 561.459C199.918 565.846 216.503 567.404 233.493 566.07C247.433 564.972 261.688 561.63 275.322 555.377C280.493 553.013 285.577 550.223 289.93 546.619C300.21 538.118 305.2 526.52 308.272 516.098C309.173 513.036 309.95 510 310.603 506.991C311.936 500.714 312.782 494.427 313.133 488.191C313.266 485.56 313.585 482.909 314.088 480.257C315.094 475.226 317.212 470.116 322.306 466.825C327.945 463.182 333.616 464.345 338.109 466.517C339.66 467.245 341.137 468.097 342.526 469.064C346.38 471.789 349.925 474.465 353.444 477.161C356.963 479.858 360.547 482.604 364.125 485.294C373.178 492.134 383.081 499.425 397.871 499.075C406.934 498.854 417.377 495.305 427.318 489.444C433.814 485.645 439.855 480.948 445.229 475.518C456.469 464.04 463.185 451.166 469.309 438.289C475.315 425.694 480.887 413.076 489.886 401.474C494.19 395.966 498.996 390.84 504.221 386.183C510.829 380.2 518.139 374.577 525.54 368.784C532.739 363.214 539.717 357.328 546.446 351.15" stroke="url(#paint33_linear_481_329)" stroke-opacity="0.37" stroke-width="0.53" stroke-miterlimit="10"/>
<path opacity="0.2" d="M114.563 523.018C131.041 536.799 149.67 552.595 175.25 560.88C190.725 565.76 207.446 567.637 224.631 566.425C238.659 565.424 252.998 562.055 266.709 555.634C271.91 553.213 277.011 550.339 281.368 546.621C291.663 537.859 296.476 525.861 299.33 515.075C300.167 511.906 300.877 508.761 301.459 505.642C302.652 499.132 303.334 492.628 303.498 486.193C303.55 483.491 303.798 480.763 304.24 478.027C305.132 472.858 307.184 467.623 312.301 464.303C318 460.6 323.687 461.915 328.236 464.27C329.804 465.088 331.29 466.03 332.683 467.089C336.582 470.069 340.197 473.003 343.797 475.954C347.397 478.905 351.044 481.936 354.707 484.874C363.972 492.374 374.069 500.331 389.122 500.378C398.34 500.404 408.946 496.982 418.975 491.14C425.536 487.355 431.621 482.615 436.993 477.105C448.23 465.45 454.761 452.256 460.719 439.022C466.543 426.078 471.913 413.065 480.825 401.13C485.088 395.482 489.884 390.221 495.127 385.443C501.726 379.334 509.077 373.62 516.477 367.804C523.876 361.988 531.398 355.93 537.743 350.216" stroke="url(#paint34_linear_481_329)" stroke-opacity="0.37" stroke-width="0.52" stroke-miterlimit="10"/>
<path opacity="0.17" d="M104.248 518.298C121.068 533.411 139.809 550.338 165.608 559.468C181.065 564.831 197.911 567.029 215.284 565.95C229.394 565.043 243.827 561.643 257.61 555.061C262.83 552.578 267.963 549.618 272.316 545.792C282.597 536.756 287.267 524.371 289.907 513.216C290.671 509.956 291.312 506.705 291.83 503.463C292.88 496.716 293.395 489.991 293.37 483.354C293.339 480.582 293.516 477.776 293.9 474.957C294.657 469.635 296.663 464.304 301.814 460.945C307.544 457.2 313.278 458.649 317.868 461.212C319.46 462.105 320.96 463.129 322.358 464.277C326.296 467.51 329.992 470.698 333.666 473.901C337.341 477.104 341.09 480.375 344.816 483.599C354.268 491.755 364.581 500.381 379.903 500.812C389.282 501.085 400.044 497.788 410.166 491.968C416.779 488.186 422.895 483.397 428.252 477.807C439.492 465.978 445.853 452.463 451.622 438.862C457.268 425.571 462.443 412.166 471.262 399.91C475.464 394.121 480.236 388.724 485.484 383.824C492.075 377.574 499.435 371.765 506.895 365.927C514.356 360.089 521.999 354.119 528.569 348.427" stroke="url(#paint35_linear_481_329)" stroke-opacity="0.37" stroke-width="0.52" stroke-miterlimit="10"/>
<path opacity="0.15" d="M93.454 512.72C110.611 529.161 129.501 547.219 155.477 557.193C170.926 563.049 187.917 565.574 205.502 564.626C219.698 563.807 234.218 560.389 248.077 553.638C253.328 551.084 258.482 548.048 262.83 544.113C273.108 534.808 277.615 522.036 280.033 510.525C280.746 507.137 281.322 503.775 281.763 500.441C282.671 493.463 283.019 486.522 282.803 479.687C282.69 476.843 282.796 473.956 283.119 471.051C283.79 465.602 285.704 460.142 290.881 456.748C296.655 452.959 302.437 454.527 307.062 457.326C308.67 458.297 310.182 459.4 311.586 460.627C315.573 464.108 319.33 467.574 323.095 471.012C326.86 474.45 330.676 478.001 334.48 481.485C344.129 490.302 354.665 499.568 370.223 500.446C379.743 500.953 390.682 497.795 400.891 491.996C407.569 488.226 413.729 483.394 419.084 477.725C430.319 465.71 436.532 451.883 442.096 437.924C447.585 424.287 452.532 410.484 461.266 397.904C465.421 391.984 470.177 386.46 475.437 381.445C482.021 375.062 489.391 369.158 496.904 363.287C504.416 357.417 512.115 351.446 518.879 345.786" stroke="url(#paint36_linear_481_329)" stroke-opacity="0.37" stroke-width="0.51" stroke-miterlimit="10"/>
<path opacity="0.12" d="M82.1566 506.259C99.6529 524.022 118.649 543.201 144.847 554.037C160.279 560.376 177.41 563.224 195.203 562.407C209.475 561.68 224.091 558.239 238.023 551.326C243.302 548.707 248.467 545.599 252.821 541.536C263.104 531.973 267.445 518.806 269.656 506.913C270.302 503.421 270.812 499.954 271.186 496.511C271.951 489.295 272.132 482.133 271.726 475.096C271.533 472.182 271.566 469.217 271.825 466.228C272.386 460.643 274.228 455.07 279.441 451.636C285.237 447.819 291.056 449.539 295.752 452.519C297.382 453.571 298.91 454.758 300.324 456.069C304.344 459.801 308.189 463.508 312.024 467.219C315.859 470.931 319.772 474.719 323.652 478.464C333.494 487.94 344.216 497.901 360.055 499.144C369.743 499.909 380.851 496.881 391.133 491.088C397.87 487.331 404.069 482.455 409.413 476.707C420.651 464.517 426.687 450.382 432.075 436.046C437.38 422.059 442.133 407.865 450.779 394.966C454.878 388.907 459.615 383.246 464.885 378.106C471.466 371.585 478.846 365.585 486.405 359.68C493.964 353.775 501.769 347.854 508.761 342.225" stroke="url(#paint37_linear_481_329)" stroke-opacity="0.37" stroke-width="0.5" stroke-miterlimit="10"/>
<path opacity="0.07" d="M58.0653 490.423C76.2495 510.842 95.5047 532.29 122.104 544.817C137.493 552.092 154.89 555.588 173.096 555.064C187.546 554.501 202.338 551.032 216.423 543.783C221.745 541.044 226.959 537.764 231.316 533.488C241.593 523.388 245.615 509.434 247.394 496.808C247.912 493.102 248.289 489.418 248.524 485.756C249.006 478.07 248.853 470.471 248.065 463.036C247.709 459.987 247.595 456.874 247.724 453.722C248.067 447.866 249.783 442.058 255.036 438.549C260.906 434.647 266.84 436.635 271.587 440.041C273.263 441.246 274.821 442.596 276.248 444.078C280.346 448.316 284.355 452.525 288.336 456.746C292.318 460.968 296.405 465.278 300.443 469.537C310.685 480.329 321.818 491.61 338.174 493.674C348.182 494.912 359.59 492.158 370.05 486.399C376.908 482.66 383.187 477.692 388.517 471.788C399.753 459.237 405.435 444.47 410.47 429.41C415.412 414.719 419.768 399.738 428.23 386.191C432.229 379.866 436.926 373.938 442.211 368.547C448.781 361.761 456.171 355.558 463.843 349.599C471.515 343.641 479.497 337.807 486.919 332.237" stroke="url(#paint38_linear_481_329)" stroke-opacity="0.37" stroke-width="0.49" stroke-miterlimit="10"/>
<path opacity="0.05" d="M45.204 480.983C63.728 502.725 83.1306 525.279 109.91 538.682C124.938 546.197 142.858 550.444 161.252 549.881C175.785 549.412 190.659 545.907 204.822 538.499C210.178 535.697 215.416 532.335 219.765 527.941C230.052 517.563 233.907 503.243 235.468 490.239C235.924 486.426 236.232 482.635 236.393 478.866C236.735 470.944 236.416 463.125 235.44 455.488C235.004 452.365 234.823 449.167 234.897 445.925C235.128 439.901 236.762 433.999 242.058 430.462C247.963 426.52 253.941 428.648 258.734 432.256C260.428 433.541 261.998 434.972 263.431 436.537C267.578 441.024 271.658 445.492 275.731 449.972C279.805 454.452 283.958 459.018 288.073 463.537C298.512 474.99 309.851 486.943 326.47 489.404C336.637 490.882 348.212 488.234 358.753 482.545C365.665 478.825 371.979 473.822 377.299 467.851C388.535 455.117 394.038 440.033 398.892 424.618C403.655 409.571 407.812 394.204 416.176 380.357C420.12 373.9 424.796 367.84 430.091 362.327C436.653 355.4 444.069 349.109 451.773 343.117C459.477 337.125 467.571 331.344 475.211 325.809" stroke="url(#paint39_linear_481_329)" stroke-opacity="0.37" stroke-width="0.49" stroke-miterlimit="10"/>
<path opacity="0.02" d="M31.8192 470.483C50.6797 493.553 70.2221 517.242 97.188 531.485C112.299 539.47 130.298 544.077 148.83 543.623C163.451 543.251 178.421 539.724 192.649 532.143C198.029 529.282 203.293 525.831 207.627 521.362C217.905 510.727 221.601 496 222.95 482.635C223.338 478.713 223.58 474.811 223.675 470.929C223.868 462.774 223.384 454.737 222.226 446.9C221.706 443.707 221.452 440.431 221.466 437.104C221.574 430.969 223.152 424.922 228.477 421.358C234.411 417.375 240.433 419.643 245.274 423.447C246.994 424.801 248.588 426.3 250.044 427.933C254.223 432.677 258.382 437.414 262.523 442.143L275.11 456.488C285.751 468.596 297.289 481.233 314.163 484.079C324.49 485.806 336.215 483.31 346.87 477.591C353.848 473.874 360.208 468.815 365.52 462.755C376.756 449.838 382.102 434.446 386.763 418.662C391.333 403.27 395.305 387.506 403.588 373.314C407.48 366.725 412.137 360.531 417.441 354.891C424.019 347.841 431.43 341.418 439.173 335.419C446.915 329.419 455.117 323.659 462.978 318.144" stroke="url(#paint40_linear_481_329)" stroke-opacity="0.37" stroke-width="0.48" stroke-miterlimit="10"/>
<defs>
<linearGradient id="paint0_linear_481_329" x1="564.316" y1="378.22" x2="366.149" y2="271.936" gradientUnits="userSpaceOnUse">
<stop stop-color="#FF629A" stop-opacity="0.94"/>
<stop offset="1" stop-color="#FFB834"/>
</linearGradient>
<linearGradient id="paint1_linear_481_329" x1="560.549" y1="379.587" x2="365.156" y2="274.791" gradientUnits="userSpaceOnUse">
<stop stop-color="#FF629A" stop-opacity="0.94"/>
<stop offset="1" stop-color="#FFB834"/>
</linearGradient>
<linearGradient id="paint2_linear_481_329" x1="560.987" y1="380.105" x2="364.688" y2="274.822" gradientUnits="userSpaceOnUse">
<stop stop-color="#FF629A" stop-opacity="0.94"/>
<stop offset="1" stop-color="#FFB834"/>
</linearGradient>
<linearGradient id="paint3_linear_481_329" x1="561.278" y1="381.285" x2="364.003" y2="275.479" gradientUnits="userSpaceOnUse">
<stop stop-color="#FF629A" stop-opacity="0.94"/>
<stop offset="1" stop-color="#FFB834"/>
</linearGradient>
<linearGradient id="paint4_linear_481_329" x1="561.538" y1="383.084" x2="363.14" y2="276.675" gradientUnits="userSpaceOnUse">
<stop stop-color="#FF629A" stop-opacity="0.94"/>
<stop offset="1" stop-color="#FFB834"/>
</linearGradient>
<linearGradient id="paint5_linear_481_329" x1="561.675" y1="385.429" x2="362.078" y2="278.377" gradientUnits="userSpaceOnUse">
<stop stop-color="#FF629A" stop-opacity="0.94"/>
<stop offset="1" stop-color="#FFB834"/>
</linearGradient>
<linearGradient id="paint6_linear_481_329" x1="561.67" y1="388.31" x2="360.787" y2="280.569" gradientUnits="userSpaceOnUse">
<stop stop-color="#FF629A" stop-opacity="0.94"/>
<stop offset="1" stop-color="#FFB834"/>
</linearGradient>
<linearGradient id="paint7_linear_481_329" x1="561.592" y1="391.681" x2="359.276" y2="283.172" gradientUnits="userSpaceOnUse">
<stop stop-color="#FF629A" stop-opacity="0.94"/>
<stop offset="1" stop-color="#FFB834"/>
</linearGradient>
<linearGradient id="paint8_linear_481_329" x1="561.329" y1="395.462" x2="357.516" y2="286.15" gradientUnits="userSpaceOnUse">
<stop stop-color="#FF629A" stop-opacity="0.94"/>
<stop offset="1" stop-color="#FFB834"/>
</linearGradient>
<linearGradient id="paint9_linear_481_329" x1="560.949" y1="399.635" x2="355.518" y2="289.455" gradientUnits="userSpaceOnUse">
<stop stop-color="#FF629A" stop-opacity="0.94"/>
<stop offset="1" stop-color="#FFB834"/>
</linearGradient>
<linearGradient id="paint10_linear_481_329" x1="560.369" y1="404.172" x2="353.229" y2="293.075" gradientUnits="userSpaceOnUse">
<stop stop-color="#FF629A" stop-opacity="0.94"/>
<stop offset="1" stop-color="#FFB834"/>
</linearGradient>
<linearGradient id="paint11_linear_481_329" x1="559.705" y1="409.016" x2="350.677" y2="296.906" gradientUnits="userSpaceOnUse">
<stop stop-color="#FF629A" stop-opacity="0.94"/>
<stop offset="1" stop-color="#FFB834"/>
</linearGradient>
<linearGradient id="paint12_linear_481_329" x1="558.819" y1="414.107" x2="347.821" y2="300.941" gradientUnits="userSpaceOnUse">
<stop stop-color="#FF629A" stop-opacity="0.94"/>
<stop offset="1" stop-color="#FFB834"/>
</linearGradient>
<linearGradient id="paint13_linear_481_329" x1="557.698" y1="419.458" x2="344.717" y2="305.229" gradientUnits="userSpaceOnUse">
<stop stop-color="#FF629A" stop-opacity="0.94"/>
<stop offset="1" stop-color="#FFB834"/>
</linearGradient>
<linearGradient id="paint14_linear_481_329" x1="556.343" y1="424.834" x2="341.393" y2="309.548" gradientUnits="userSpaceOnUse">
<stop stop-color="#FF629A" stop-opacity="0.94"/>
<stop offset="1" stop-color="#FFB834"/>
</linearGradient>
<linearGradient id="paint15_linear_481_329" x1="554.717" y1="430.388" x2="337.761" y2="314.026" gradientUnits="userSpaceOnUse">
<stop stop-color="#FF629A" stop-opacity="0.94"/>
<stop offset="1" stop-color="#FFB834"/>
</linearGradient>
<linearGradient id="paint16_linear_481_329" x1="552.813" y1="436.001" x2="333.841" y2="318.558" gradientUnits="userSpaceOnUse">
<stop stop-color="#FF629A" stop-opacity="0.94"/>
<stop offset="1" stop-color="#FFB834"/>
</linearGradient>
<linearGradient id="paint17_linear_481_329" x1="550.684" y1="441.65" x2="329.654" y2="323.178" gradientUnits="userSpaceOnUse">
<stop stop-color="#FF629A" stop-opacity="0.94"/>
<stop offset="1" stop-color="#FFB834"/>
</linearGradient>
<linearGradient id="paint18_linear_481_329" x1="548.171" y1="447.247" x2="325.099" y2="327.649" gradientUnits="userSpaceOnUse">
<stop stop-color="#FF629A" stop-opacity="0.94"/>
<stop offset="1" stop-color="#FFB834"/>
</linearGradient>
<linearGradient id="paint19_linear_481_329" x1="545.379" y1="452.768" x2="320.247" y2="332.022" gradientUnits="userSpaceOnUse">
<stop stop-color="#FF629A" stop-opacity="0.94"/>
<stop offset="1" stop-color="#FFB834"/>
</linearGradient>
<linearGradient id="paint20_linear_481_329" x1="542.292" y1="458.191" x2="315.067" y2="336.322" gradientUnits="userSpaceOnUse">
<stop stop-color="#FF629A" stop-opacity="0.94"/>
<stop offset="1" stop-color="#FFB834"/>
</linearGradient>
<linearGradient id="paint21_linear_481_329" x1="538.837" y1="463.435" x2="309.548" y2="340.459" gradientUnits="userSpaceOnUse">
<stop stop-color="#FF629A" stop-opacity="0.94"/>
<stop offset="1" stop-color="#FFB834"/>
</linearGradient>
<linearGradient id="paint22_linear_481_329" x1="535.104" y1="468.501" x2="303.681" y2="344.38" gradientUnits="userSpaceOnUse">
<stop stop-color="#FF629A" stop-opacity="0.94"/>
<stop offset="1" stop-color="#FFB834"/>
</linearGradient>
<linearGradient id="paint23_linear_481_329" x1="530.993" y1="473.311" x2="297.457" y2="348.057" gradientUnits="userSpaceOnUse">
<stop stop-color="#FF629A" stop-opacity="0.94"/>
<stop offset="1" stop-color="#FFB834"/>
</linearGradient>
<linearGradient id="paint24_linear_481_329" x1="526.504" y1="477.821" x2="290.872" y2="351.443" gradientUnits="userSpaceOnUse">
<stop stop-color="#FF629A" stop-opacity="0.94"/>
<stop offset="1" stop-color="#FFB834"/>
</linearGradient>
<linearGradient id="paint25_linear_481_329" x1="521.663" y1="482.008" x2="283.902" y2="354.488" gradientUnits="userSpaceOnUse">
<stop stop-color="#FF629A" stop-opacity="0.94"/>
<stop offset="1" stop-color="#FFB834"/>
</linearGradient>
<linearGradient id="paint26_linear_481_329" x1="516.374" y1="485.782" x2="276.543" y2="357.152" gradientUnits="userSpaceOnUse">
<stop stop-color="#FF629A" stop-opacity="0.94"/>
<stop offset="1" stop-color="#FFB834"/>
</linearGradient>
<linearGradient id="paint27_linear_481_329" x1="510.699" y1="489.14" x2="268.783" y2="359.391" gradientUnits="userSpaceOnUse">
<stop stop-color="#FF629A" stop-opacity="0.94"/>
<stop offset="1" stop-color="#FFB834"/>
</linearGradient>
<linearGradient id="paint28_linear_481_329" x1="504.645" y1="492.029" x2="260.616" y2="361.147" gradientUnits="userSpaceOnUse">
<stop stop-color="#FF629A" stop-opacity="0.94"/>
<stop offset="1" stop-color="#FFB834"/>
</linearGradient>
<linearGradient id="paint29_linear_481_329" x1="498.17" y1="494.425" x2="252.017" y2="362.404" gradientUnits="userSpaceOnUse">
<stop stop-color="#FF629A" stop-opacity="0.94"/>
<stop offset="1" stop-color="#FFB834"/>
</linearGradient>
<linearGradient id="paint30_linear_481_329" x1="491.25" y1="496.246" x2="242.996" y2="363.098" gradientUnits="userSpaceOnUse">
<stop stop-color="#FF629A" stop-opacity="0.94"/>
<stop offset="1" stop-color="#FFB834"/>
</linearGradient>
<linearGradient id="paint31_linear_481_329" x1="483.884" y1="497.462" x2="233.522" y2="363.183" gradientUnits="userSpaceOnUse">
<stop stop-color="#FF629A" stop-opacity="0.94"/>
<stop offset="1" stop-color="#FFB834"/>
</linearGradient>
<linearGradient id="paint32_linear_481_329" x1="476.038" y1="498.008" x2="223.596" y2="362.613" gradientUnits="userSpaceOnUse">
<stop stop-color="#FF629A" stop-opacity="0.94"/>
<stop offset="1" stop-color="#FFB834"/>
</linearGradient>
<linearGradient id="paint33_linear_481_329" x1="467.746" y1="497.886" x2="213.202" y2="361.364" gradientUnits="userSpaceOnUse">
<stop stop-color="#FF629A" stop-opacity="0.94"/>
<stop offset="1" stop-color="#FFB834"/>
</linearGradient>
<linearGradient id="paint34_linear_481_329" x1="458.99" y1="497.051" x2="202.323" y2="359.39" gradientUnits="userSpaceOnUse">
<stop stop-color="#FF629A" stop-opacity="0.94"/>
<stop offset="1" stop-color="#FFB834"/>
</linearGradient>
<linearGradient id="paint35_linear_481_329" x1="449.735" y1="495.414" x2="190.96" y2="356.623" gradientUnits="userSpaceOnUse">
<stop stop-color="#FF629A" stop-opacity="0.94"/>
<stop offset="1" stop-color="#FFB834"/>
</linearGradient>
<linearGradient id="paint36_linear_481_329" x1="439.947" y1="492.956" x2="179.091" y2="353.049" gradientUnits="userSpaceOnUse">
<stop stop-color="#FF629A" stop-opacity="0.94"/>
<stop offset="1" stop-color="#FFB834"/>
</linearGradient>
<linearGradient id="paint37_linear_481_329" x1="429.697" y1="489.639" x2="166.718" y2="348.594" gradientUnits="userSpaceOnUse">
<stop stop-color="#FF629A" stop-opacity="0.94"/>
<stop offset="1" stop-color="#FFB834"/>
</linearGradient>
<linearGradient id="paint38_linear_481_329" x1="407.565" y1="480.192" x2="140.404" y2="336.903" gradientUnits="userSpaceOnUse">
<stop stop-color="#FF629A" stop-opacity="0.94"/>
<stop offset="1" stop-color="#FFB834"/>
</linearGradient>
<linearGradient id="paint39_linear_481_329" x1="395.712" y1="474.034" x2="126.401" y2="329.592" gradientUnits="userSpaceOnUse">
<stop stop-color="#FF629A" stop-opacity="0.94"/>
<stop offset="1" stop-color="#FFB834"/>
</linearGradient>
<linearGradient id="paint40_linear_481_329" x1="383.282" y1="466.736" x2="111.895" y2="321.182" gradientUnits="userSpaceOnUse">
<stop stop-color="#FF629A" stop-opacity="0.94"/>
<stop offset="1" stop-color="#FFB834"/>
</linearGradient>
</defs>
</svg>
