<svg width="351" height="79" viewBox="0 0 351 79" fill="none" xmlns="http://www.w3.org/2000/svg">
<path d="M0 12.7954H10.572V23.3674H0V12.7954Z" fill="#FD9C4A"/>
<path d="M118.294 55.0835H102.507V15.6146H118.294C124.121 15.6146 128.988 17.5129 132.898 21.3094C136.845 25.1059 138.818 29.7858 138.818 35.3491C138.818 40.9123 136.845 45.5922 132.898 49.3887C128.988 53.1852 124.121 55.0835 118.294 55.0835ZM118.294 21.4786H108.822V49.2195H118.294C122.241 49.2195 125.549 47.8851 128.218 45.2163C130.887 42.5474 132.221 39.2583 132.221 35.3491C132.221 31.4398 130.887 28.1507 128.218 25.4818C125.549 22.813 122.241 21.4786 118.294 21.4786Z" fill="#AB49AD"/>
<path d="M157.924 25.0308C161.721 25.0308 164.972 26.3276 167.679 28.9213V25.7638H173.543V55.0835H167.679V51.926C164.972 54.5196 161.721 55.8165 157.924 55.8165C153.827 55.8165 150.388 54.3505 147.606 51.4185C144.862 48.5241 143.49 44.8592 143.49 40.4236C143.49 35.9881 144.862 32.3231 147.606 29.4287C150.388 26.4967 153.827 25.0308 157.924 25.0308ZM158.545 30.8947C156.026 30.8947 153.902 31.8156 152.173 33.6575C150.444 35.4242 149.579 37.6796 149.579 40.4236C149.579 43.1301 150.444 45.4042 152.173 47.2461C153.94 49.0504 156.064 49.9525 158.545 49.9525C161.101 49.9525 163.243 49.0504 164.972 47.2461C166.701 45.4042 167.566 43.1301 167.566 40.4236C167.566 37.6796 166.701 35.4242 164.972 33.6575C163.243 31.8156 161.101 30.8947 158.545 30.8947Z" fill="#AB49AD"/>
<path d="M177.703 30.8947V25.7638H182.158V19.9562H188.022V25.7638H195.803V30.8947H188.022V45.329C188.022 46.4943 188.397 47.4716 189.149 48.261C189.901 49.0504 190.841 49.4451 191.968 49.4451H195.803V55.0835H191.517C188.886 55.0835 186.668 54.2377 184.864 52.5462C183.06 50.7795 182.158 48.6369 182.158 46.1184V30.8947H177.703Z" fill="#AB49AD"/>
<path d="M213.978 25.0308C217.775 25.0308 221.026 26.3276 223.732 28.9213V25.7638H229.596V55.0835H223.732V51.926C221.026 54.5196 217.775 55.8165 213.978 55.8165C209.881 55.8165 206.441 54.3505 203.66 51.4185C200.916 48.5241 199.544 44.8592 199.544 40.4236C199.544 35.9881 200.916 32.3231 203.66 29.4287C206.441 26.4967 209.881 25.0308 213.978 25.0308ZM214.598 30.8947C212.08 30.8947 209.956 31.8156 208.227 33.6575C206.498 35.4242 205.633 37.6796 205.633 40.4236C205.633 43.1301 206.498 45.4042 208.227 47.2461C209.994 49.0504 212.117 49.9525 214.598 49.9525C217.154 49.9525 219.297 49.0504 221.026 47.2461C222.755 45.4042 223.62 43.1301 223.62 40.4236C223.62 37.6796 222.755 35.4242 221.026 33.6575C219.297 31.8156 217.154 30.8947 214.598 30.8947Z" fill="#AB49AD"/>
<path d="M243.28 40.5364V55.0835H236.965V15.6146H254.444C258.203 15.6146 261.342 16.7987 263.86 19.1668C266.416 21.5349 267.694 24.5045 267.694 28.0755C267.694 31.6465 266.416 34.6161 263.86 36.9842C261.342 39.3523 258.203 40.5364 254.444 40.5364H243.28ZM254.444 21.4786H243.28V34.6724H254.444C256.324 34.6724 257.902 34.0522 259.18 32.8118C260.458 31.5337 261.098 29.955 261.098 28.0755C261.098 26.196 260.458 24.6361 259.18 23.3956C257.902 22.1176 256.324 21.4786 254.444 21.4786Z" fill="#AB49AD"/>
<path d="M279.438 55.0835H273.574V25.7638H279.438V55.0835ZM273.743 21.4222C273.029 20.6704 272.672 19.7495 272.672 18.6594C272.672 17.5693 273.029 16.6483 273.743 15.8965C274.495 15.1447 275.416 14.7689 276.506 14.7689C277.596 14.7689 278.517 15.1447 279.269 15.8965C280.02 16.6483 280.396 17.5693 280.396 18.6594C280.396 19.7495 280.02 20.6704 279.269 21.4222C278.517 22.174 277.596 22.5499 276.506 22.5499C275.416 22.5499 274.495 22.174 273.743 21.4222Z" fill="#AB49AD"/>
<path d="M292.267 55.0835H286.403V12.7954H292.267V55.0835Z" fill="#AB49AD"/>
<path d="M313.329 55.8165C308.931 55.8165 305.266 54.3505 302.334 51.4185C299.402 48.4865 297.936 44.8216 297.936 40.4236C297.936 36.0257 299.402 32.3607 302.334 29.4287C305.266 26.4967 308.931 25.0308 313.329 25.0308C317.727 25.0308 321.392 26.4967 324.324 29.4287C327.293 32.3607 328.778 36.0257 328.778 40.4236C328.778 44.8216 327.293 48.4865 324.324 51.4185C321.392 54.3505 317.727 55.8165 313.329 55.8165ZM313.329 49.9525C316.035 49.9525 318.253 49.0504 319.982 47.2461C321.787 45.4042 322.689 43.1301 322.689 40.4236C322.689 37.7172 321.787 35.4618 319.982 33.6575C318.253 31.8156 316.035 30.8947 313.329 30.8947C310.698 30.8947 308.48 31.8156 306.676 33.6575C304.909 35.4994 304.026 37.7548 304.026 40.4236C304.026 43.0925 304.909 45.3666 306.676 47.2461C308.48 49.0504 310.698 49.9525 313.329 49.9525Z" fill="#AB49AD"/>
<path d="M331.544 30.8947V25.7638H335.998V19.9562H341.862V25.7638H351V30.8947H341.862V45.329C341.862 46.4943 342.238 47.4716 342.99 48.261C343.741 49.0504 344.681 49.4451 345.809 49.4451H351V55.0835H345.358C342.727 55.0835 340.509 54.2377 338.704 52.5462C336.9 50.7795 335.998 48.6369 335.998 46.1184V30.8947H331.544Z" fill="#AB49AD"/>
<path fill-rule="evenodd" clip-rule="evenodd" d="M16.2838 5.06258C16.2838 5.03175 16.2839 5.00107 16.2843 4.97053H16.2838V0H21.1972V0.0774585C21.6712 0.02576 22.1804 0 22.7255 0H50.1029C72.764 0 85.0723 8.8365 85.0723 29.8232C85.0723 52.1906 72.879 62.1316 50.1029 62.1316H22.7255L22.6742 62.1315H16.2838V57.1089L16.2838 57.069V5.06258ZM26.2725 23.0706V12.4263H56.469C69.7345 12.4263 75.4072 20.9056 75.4072 30.6479C75.4072 39.8489 70.2581 49.7715 56.469 49.7715H38.1417C37.1817 49.7715 36.658 50.2225 36.658 51.305V62.1316H26.3598V49.2303C26.3598 42.3746 29.1525 39.5782 35.6107 39.5782H56.8181C62.6654 39.5782 65.0217 35.4288 65.0217 31.1891C65.0217 26.769 62.4908 23.0706 56.9053 23.0706H26.2725Z" fill="url(#paint0_linear_1_368)"/>
<path d="M25.8424 68.1309H36.4144V78.7029H25.8424V68.1309Z" fill="#FF6E9B"/>
<defs>
<linearGradient id="paint0_linear_1_368" x1="8.14208" y1="12.891" x2="74.6324" y2="72.5966" gradientUnits="userSpaceOnUse">
<stop offset="0.0572737" stop-color="#FDAB2F"/>
<stop offset="0.510417" stop-color="#FF629A" stop-opacity="0.94"/>
<stop offset="1" stop-color="#7C0DEB"/>
</linearGradient>
</defs>
</svg>
